<?xml version="1.0" encoding="UTF-8"?>
<svg version="1.1" xmlns="http://www.w3.org/2000/svg" width="500" height="500">
<path d="M0 0 C1.04447296 -0.00012085 2.08894592 -0.0002417 3.16506958 -0.00036621 C18.5516168 0.02502437 33.1164116 0.74205878 48.125 4.375 C49.52395883 4.6703888 50.92367281 4.96223028 52.32421875 5.25 C82.31934965 11.72379574 111.21760932 26.3178857 135.125 45.375 C136.01058594 46.06851563 136.89617187 46.76203125 137.80859375 47.4765625 C148.30422114 55.85478466 158.67428789 64.89756464 167.125 75.375 C168.03495815 76.47282048 168.94513593 77.57045894 169.85546875 78.66796875 C176.87089237 87.20106536 183.32211744 95.97265501 189.125 105.375 C189.53459961 106.03773926 189.94419922 106.70047852 190.36621094 107.38330078 C202.0151244 126.54808229 209.70635182 147.67682742 215.125 169.375 C215.44082031 170.63441406 215.75664062 171.89382812 216.08203125 173.19140625 C219.58460737 188.35773337 220.50883282 203.55318242 220.4375 219.0625 C220.43476578 220.30566483 220.43476578 220.30566483 220.43197632 221.57394409 C220.38352413 234.70511778 219.75644173 247.4745174 217.125 260.375 C216.95339355 261.23754395 216.78178711 262.10008789 216.60498047 262.98876953 C208.58769134 302.18679349 190.01069471 338.89459264 162.40234375 367.921875 C160.12611776 370.27387864 160.12611776 370.27387864 158.44140625 372.703125 C158.00699219 373.25484375 157.57257813 373.8065625 157.125 374.375 C156.465 374.375 155.805 374.375 155.125 374.375 C155.125 375.035 155.125 375.695 155.125 376.375 C154.465 376.375 153.805 376.375 153.125 376.375 C153.125 377.035 153.125 377.695 153.125 378.375 C150.70507193 380.95728746 147.84962131 383.12405567 145.125 385.375 C144.59390625 385.8169873 144.0628125 386.25897461 143.515625 386.71435547 C103.74013595 419.69262553 55.01188804 438.90099697 3.11376953 438.63574219 C0.62637988 438.62500596 -1.86028797 438.63572439 -4.34765625 438.6484375 C-19.26821148 438.66343729 -33.67151756 437.31018118 -48.1875 433.6875 C-49.2494458 433.42549805 -50.3113916 433.16349609 -51.40551758 432.89355469 C-82.27111431 425.05863735 -110.06457046 411.32932657 -135.12109375 391.74560547 C-136.77075156 390.45646586 -138.43069562 389.18193437 -140.09375 387.91015625 C-145.20687773 383.93886463 -145.20687773 383.93886463 -146.875 382.375 C-146.875 381.715 -146.875 381.055 -146.875 380.375 C-147.71804687 380.01921875 -147.71804687 380.01921875 -148.578125 379.65625 C-151.39394042 378.08552303 -153.35455416 376.16028536 -155.625 373.875 C-156.42421875 373.0809375 -157.2234375 372.286875 -158.046875 371.46875 C-159.875 369.375 -159.875 369.375 -159.875 367.375 C-160.535 367.375 -161.195 367.375 -161.875 367.375 C-164.63373537 364.40817037 -167.08642353 361.18821681 -169.58984375 358.00439453 C-170.83992874 356.41946535 -172.10724334 354.84817348 -173.375 353.27734375 C-179.66750407 345.40155652 -184.95003189 337.16202221 -189.875 328.375 C-190.3095752 327.61219727 -190.74415039 326.84939453 -191.19189453 326.06347656 C-202.62596407 305.84365484 -210.60133217 284.22529254 -214.875 261.375 C-215.06082138 260.41868683 -215.06082138 260.41868683 -215.25039673 259.4430542 C-217.78221339 246.17678284 -218.40021686 233.2355987 -218.3125 219.75 C-218.30912628 218.74064392 -218.30575256 217.73128784 -218.30227661 216.69134521 C-218.22771296 201.27024129 -217.62565012 186.40684015 -213.875 171.375 C-213.62830566 170.38000488 -213.38161133 169.38500977 -213.12744141 168.35986328 C-206.40666672 142.11624893 -195.89393691 116.37306106 -179.875 94.375 C-179.15699219 93.385 -178.43898437 92.395 -177.69921875 91.375 C-166.97000244 76.84701108 -166.97000244 76.84701108 -161.875 71.375 C-161.215 71.375 -160.555 71.375 -159.875 71.375 C-159.64683594 70.82199219 -159.41867188 70.26898438 -159.18359375 69.69921875 C-154.16884949 60.79243416 -143.76600453 53.56042489 -135.875 47.375 C-134.90175781 46.58480469 -133.92851562 45.79460937 -132.92578125 44.98046875 C-104.99427819 22.72638538 -71.75534745 9.06554924 -36.875 2.375 C-35.85083984 2.17777344 -34.82667969 1.98054688 -33.77148438 1.77734375 C-22.56880742 -0.10207479 -11.33039996 -0.02007177 0 0 Z M-38.875 15.375 C-40.15552246 15.63240967 -40.15552246 15.63240967 -41.46191406 15.89501953 C-63.78644279 20.46195694 -95.2708887 28.7708887 -111.875 45.375 C-112.33641979 52.14249032 -110.99598651 58.7191426 -109.875 65.375 C-104.78723301 62.64048958 -99.86506541 59.73963855 -95 56.625 C-52.56072623 30.4401163 -1.30883196 24.80185674 46.79394531 35.81298828 C72.09825747 41.91379752 95.42627898 53.73448733 116.125 69.375 C118.50671031 65.57226926 118.78010945 61.48496803 119.25 57.125 C119.37955078 56.00738281 119.37955078 56.00738281 119.51171875 54.8671875 C119.72286867 53.03722154 119.92484545 51.20620121 120.125 49.375 C84.40541683 24.64995519 44.77076506 12.15699927 1.3125 12.125 C0.48830566 12.12432526 -0.33588867 12.12365051 -1.18505859 12.12295532 C-13.97959431 12.13957281 -26.31978693 12.73030345 -38.875 15.375 Z M-40.875 46.375 C-41.72868164 46.57867187 -42.58236328 46.78234375 -43.46191406 46.9921875 C-87.96051755 58.05283002 -126.74271321 87.73907071 -150.5625 126.6875 C-152.04555575 129.2259239 -153.46598624 131.79488995 -154.875 134.375 C-155.28975586 135.1165332 -155.70451172 135.85806641 -156.13183594 136.62207031 C-162.50700176 148.18755172 -166.97598753 158.65075148 -163.125 171.96875 C-160.10499068 178.71343747 -155.14294273 182.66379957 -148.48193359 185.53475952 C-143.86881346 187.02161376 -139.33732086 186.88489668 -134.53125 186.80078125 C-133.48094604 186.79749313 -132.43064209 186.79420502 -131.34851074 186.79081726 C-129.14666468 186.78045575 -126.94484459 186.76060792 -124.74316406 186.73168945 C-121.35727079 186.6872674 -117.97208733 186.67019513 -114.5859375 186.65820312 C-112.44269798 186.64479238 -110.29946725 186.62987311 -108.15625 186.61328125 C-106.63143005 186.60220085 -106.63143005 186.60220085 -105.07580566 186.59089661 C-104.14393433 186.57806137 -103.21206299 186.56522614 -102.25195312 186.55200195 C-101.42860474 186.54215775 -100.60525635 186.53231354 -99.75695801 186.52217102 C-97.86248317 186.57909196 -97.86248317 186.57909196 -96.875 185.375 C-96.62816703 183.04346932 -96.40289875 180.70964455 -96.1875 178.375 C-95.51502503 172.20771591 -94.00203792 167.89101652 -90.1171875 163.01171875 C-88.67348237 161.45193182 -88.67348237 161.45193182 -88.875 159.375 C-88.2975 159.08753906 -87.72 158.80007812 -87.125 158.50390625 C-85.70407497 157.79097685 -84.28684749 157.07058512 -82.875 156.33984375 C-82.215 156.00082031 -81.555 155.66179687 -80.875 155.3125 C-80.215 154.97089844 -79.555 154.62929687 -78.875 154.27734375 C-74.84969771 152.46124057 -71.24063069 152.24531696 -66.84262085 152.22782898 C-65.60627899 152.22067368 -64.36993713 152.21351837 -63.09613037 152.20614624 C-61.72863795 152.20330615 -60.36114525 152.2005944 -58.99365234 152.19799805 C-57.55117632 152.19173033 -56.10870191 152.18508326 -54.66622925 152.17808533 C-49.93114337 152.15707504 -45.19605728 152.14668417 -40.4609375 152.13671875 C-38.82793791 152.13266973 -37.19493849 152.12855277 -35.56193924 152.12436867 C-27.88713975 152.10532181 -20.21234983 152.09109103 -12.53753126 152.0827567 C-3.69345902 152.07299288 5.15036237 152.04669371 13.99434626 152.00625581 C20.83953928 151.97603702 27.68466063 151.96128228 34.52991903 151.95797569 C38.61371398 151.95563132 42.69724081 151.9467516 46.7809639 151.92151451 C50.62733356 151.89812821 54.47326057 151.8940425 58.31968307 151.90427589 C59.72487618 151.90476885 61.13009186 151.89851978 62.53521729 151.88471985 C73.92751065 151.7791712 83.02413059 153.41025435 91.4375 161.484375 C96.23026141 166.85404287 97.37446292 172.09431735 98.2265625 179.15625 C98.35865112 180.19894043 98.35865112 180.19894043 98.4934082 181.26269531 C98.70854425 182.96622158 98.9174053 184.67053829 99.125 186.375 C105.92004192 186.5025133 112.71477163 186.58964857 119.51074219 186.6496582 C121.81912771 186.67469317 124.12743483 186.70873154 126.43554688 186.75219727 C129.76712465 186.81333373 133.09764813 186.84132107 136.4296875 186.86328125 C137.959991 186.90199089 137.959991 186.90199089 139.52120972 186.94148254 C146.6896326 186.94424425 152.16258985 185.45355588 158.125 181.375 C163.98706872 175.50902035 165.6816376 169.73473027 166.5 161.6875 C165.74088951 142.92662655 152.10141367 124.76754242 141.125 110.375 C140.08085938 108.96154297 140.08085938 108.96154297 139.015625 107.51953125 C136.67751856 104.35756947 136.67751856 104.35756947 134.125 101.375 C133.465 101.375 132.805 101.375 132.125 101.375 C131.89296875 100.81941406 131.6609375 100.26382813 131.421875 99.69140625 C117.26250481 74.40072396 76.99501232 56.03596028 50.84765625 48.5859375 C21.1689266 40.70086001 -10.88892621 39.14890263 -40.875 46.375 Z M-124.875 54.375 C-149.33200929 72.90478115 -168.8101437 96.11208242 -182.875 123.375 C-183.25253418 124.10412598 -183.63006836 124.83325195 -184.01904297 125.58447266 C-198.84060958 154.58751307 -206.35650601 186.45685001 -206.1875 219 C-206.18567719 219.7365683 -206.18385437 220.4731366 -206.18197632 221.23202515 C-206.09933673 241.19177446 -203.16998057 260.12889672 -197.875 279.375 C-197.67068359 280.12136719 -197.46636719 280.86773437 -197.25585938 281.63671875 C-189.30943057 309.73932729 -173.94757789 335.4640995 -154.875 357.375 C-154.37548828 357.94895508 -153.87597656 358.52291016 -153.36132812 359.11425781 C-147.90835597 365.32398374 -142.25631647 371.11707318 -135.875 376.375 C-134.94816406 377.16648437 -134.02132812 377.95796875 -133.06640625 378.7734375 C-89.53665403 415.84393617 -35.07937857 430.64255863 21.41650391 427.17285156 C27.7259054 426.61281425 33.91785899 425.6253347 40.125 424.375 C41.53555664 424.09293701 41.53555664 424.09293701 42.97460938 423.80517578 C80.5766042 415.97454167 115.30262674 397.83627874 143.125 371.375 C143.67913574 370.85341309 144.23327148 370.33182617 144.80419922 369.79443359 C159.33766056 356.03431957 171.10626973 340.68275611 181.125 323.375 C181.51139648 322.71064941 181.89779297 322.04629883 182.29589844 321.36181641 C208.94872573 274.926023 214.92545148 217.84349391 201.49609375 166.32421875 C192.51413964 133.3647426 176.5318244 105.03842447 154.125 79.375 C153.22766876 78.25406299 152.33053039 77.13297154 151.43359375 76.01171875 C150.29083984 74.70654297 150.29083984 74.70654297 149.125 73.375 C148.465 73.375 147.805 73.375 147.125 73.375 C147.125 72.715 147.125 72.055 147.125 71.375 C142.35720656 66.45504294 136.65529219 62.39034513 131.125 58.375 C130.61578672 60.56037367 130.11805563 62.74842431 129.625 64.9375 C129.3465625 66.15566406 129.068125 67.37382813 128.78125 68.62890625 C127.81986492 73.98753676 127.81986492 73.98753676 128.125 79.375 C130.06589648 82.09294578 132.45794756 84.21552867 134.9375 86.4375 C167.01054869 116.83384812 188.12322719 162.98201942 189.41337585 207.24203491 C189.4950066 211.43251819 189.50974052 215.62132199 189.5 219.8125 C189.49918427 221.1350177 189.49918427 221.1350177 189.49835205 222.48425293 C189.45881601 236.44711775 188.65882287 249.80330387 185.125 263.375 C184.90537598 264.22852051 184.68575195 265.08204102 184.45947266 265.96142578 C182.90148457 271.8438507 181.10027801 277.62020627 179.125 283.375 C178.86348145 284.14150879 178.60196289 284.90801758 178.33251953 285.69775391 C169.49847112 311.07468049 154.38237056 332.83319131 136.125 352.375 C135.36574219 353.18839844 134.60648437 354.00179688 133.82421875 354.83984375 C100.78490376 389.06879038 53.02158699 408.26557126 5.8046875 409.5 C-45.05730897 410.39903539 -91.42122221 391.66960504 -129.265625 357.96875 C-130.875 356.375 -130.875 356.375 -131.875 354.375 C-132.535 354.375 -133.195 354.375 -133.875 354.375 C-133.875 353.715 -133.875 353.055 -133.875 352.375 C-134.535 352.375 -135.195 352.375 -135.875 352.375 C-136.22884766 351.53775391 -136.22884766 351.53775391 -136.58984375 350.68359375 C-138.18070897 347.8258389 -140.17106605 345.79615192 -142.4375 343.4375 C-174.28516655 309.2474145 -189.26339145 259.5347421 -187.96826172 213.56298828 C-185.84081944 163.65163314 -165.45748298 119.12505878 -130.875 83.375 C-128.81414042 81.49228252 -126.72850355 79.67504152 -124.56640625 77.91015625 C-121.84532068 75.44990931 -121.84532068 75.44990931 -119.875 72.375 C-120.09521319 69.50341998 -120.44777118 67.03245676 -121.0625 64.25 C-121.20236328 63.52167969 -121.34222656 62.79335937 -121.48632812 62.04296875 C-122.31661942 57.77950559 -122.31661942 57.77950559 -124.875 54.375 Z M-81.875 170.375 C-84.91932784 176.81386843 -85.30611146 182.30549089 -85.26318359 189.36157227 C-85.26844055 190.43414276 -85.27369751 191.50671326 -85.27911377 192.61178589 C-85.29226065 196.13847645 -85.28359483 199.66471152 -85.2734375 203.19140625 C-85.2754596 205.65185126 -85.27837218 208.11229568 -85.28213501 210.57273865 C-85.28655105 215.72132084 -85.28014973 220.86974658 -85.26611328 226.01831055 C-85.24901307 232.6112566 -85.25887279 239.20383648 -85.27683067 245.79676914 C-85.28768012 250.87459565 -85.28421694 255.95233558 -85.2764473 261.03016472 C-85.27444898 263.46099834 -85.27689159 265.89183988 -85.28388596 268.32266426 C-85.29152027 271.72126163 -85.27986808 275.11926875 -85.26318359 278.51782227 C-85.26925629 279.51801895 -85.27532898 280.51821564 -85.28158569 281.54872131 C-85.21763332 288.59474968 -84.35486457 293.57113303 -79.54296875 299.01171875 C-72.37942307 305.35717283 -64.9592094 311.44334509 -57.43359375 317.35546875 C-55.59120059 318.80969358 -53.77361078 320.295542 -51.97265625 321.80078125 C-50.97105469 322.60902344 -49.96945313 323.41726563 -48.9375 324.25 C-48.04160156 324.98992187 -47.14570313 325.72984375 -46.22265625 326.4921875 C-36.86427967 331.75559183 -25.28426351 330.63049618 -14.859375 330.4921875 C-13.23277128 330.47612895 -11.60616387 330.46043951 -9.97955322 330.44509888 C-6.5907256 330.41033042 -3.20213151 330.36704105 0.18652344 330.31835938 C4.51593208 330.25743497 8.84506792 330.22432454 13.1748085 330.19830132 C16.52599402 330.17400481 19.87678085 330.13179324 23.22771454 330.08456802 C24.82394695 330.06480092 26.42026981 330.05126149 28.01660919 330.04424667 C30.24908012 330.03239018 32.47985193 329.99553034 34.71191406 329.95263672 C35.97779358 329.93772186 37.2436731 329.92280701 38.5479126 329.90744019 C44.80396474 328.97624304 49.28490621 325.47174046 54.0625 321.4375 C54.99578125 320.65761719 55.9290625 319.87773437 56.890625 319.07421875 C57.65536133 318.43299072 57.65536133 318.43299072 58.43554688 317.77880859 C61.00374554 315.64482849 63.6047191 313.55190479 66.20288086 311.45458984 C73.64843667 305.44046869 73.64843667 305.44046869 81 299.3125 C81.57492187 298.82652344 82.14984375 298.34054687 82.7421875 297.83984375 C85.71349725 294.69226986 86.37567518 291.74735845 86.39242554 287.49931335 C86.40095551 286.51947479 86.40948547 285.53963623 86.41827393 284.53010559 C86.41736755 283.4614476 86.41646118 282.39278961 86.41552734 281.29174805 C86.42224457 280.16124023 86.42896179 279.03073242 86.43588257 277.8659668 C86.4549047 274.12283959 86.45878902 270.37989131 86.4609375 266.63671875 C86.46736281 264.03603542 86.47409096 261.43535282 86.48110962 258.83467102 C86.49309318 253.37975075 86.49687496 247.92490153 86.49560547 242.4699707 C86.49440486 236.17489454 86.51549155 229.88016168 86.5470928 223.58517236 C86.57645175 217.51964314 86.58358006 211.45427796 86.58238602 205.38868141 C86.58474574 202.81269746 86.59359005 200.23671096 86.60905075 197.66077232 C86.62866075 194.05570439 86.6228911 190.45151788 86.61083984 186.84643555 C86.62207886 185.78385025 86.63331787 184.72126495 86.64489746 183.6264801 C86.59138611 177.32235528 85.88764099 173.49757678 82.125 168.375 C76.64959223 163.94807457 72.08562511 163.25250067 65.2111969 163.24128723 C63.43429977 163.23488976 63.43429977 163.23488976 61.62150574 163.22836304 C60.33045425 163.22881622 59.03940277 163.22926941 57.70922852 163.22973633 C56.32908029 163.22674255 54.94893291 163.22333952 53.56878662 163.21955872 C49.82705914 163.21073778 46.08535455 163.20838143 42.34361768 163.20774293 C40.00460336 163.20703146 37.66559483 163.20489533 35.32658195 163.20224571 C27.16294867 163.19299933 18.9993317 163.18891003 10.83569336 163.18969727 C3.23136438 163.1902982 -4.3728937 163.17974143 -11.97720474 163.1639536 C-18.51153123 163.15087165 -25.04583455 163.14551363 -31.58017403 163.14615268 C-35.48041501 163.14640743 -39.38059293 163.14356875 -43.28082085 163.13297462 C-46.94899261 163.12328235 -50.61704114 163.12322217 -54.28521729 163.13049126 C-56.26880999 163.13203266 -58.25240272 163.12369865 -60.23597717 163.11505127 C-61.42339508 163.11924576 -62.61081299 163.12344025 -63.83421326 163.12776184 C-64.86197089 163.12721707 -65.88972853 163.12667231 -66.94863033 163.12611103 C-72.9569653 163.63712244 -77.90474514 165.76007989 -81.875 170.375 Z M173.125 180.375 C172.24979632 181.56818425 171.4006291 182.7804879 170.5625 184 C165.2699816 191.11969738 158.84398599 195.53034391 150.125 197.375 C143.75616754 198.29112917 137.48509392 198.51085015 131.05859375 198.47265625 C130.24201294 198.47164917 129.42543213 198.47064209 128.58410645 198.46960449 C125.57688971 198.46443097 122.56969322 198.45047045 119.5625 198.4375 C109.4459375 198.4065625 109.4459375 198.4065625 99.125 198.375 C99.125 219.825 99.125 241.275 99.125 263.375 C119.16880144 263.58485467 119.16880144 263.58485467 139.21289062 263.76293945 C141.73569202 263.79524054 144.25847999 263.82861582 146.78125 263.86328125 C148.72789551 263.87264709 148.72789551 263.87264709 150.71386719 263.88220215 C157.57946258 263.99104374 162.88256826 264.47189877 169.125 267.375 C170.61 267.87 170.61 267.87 172.125 268.375 C172.75612622 265.50123109 173.37991161 262.62615466 174 259.75 C174.17402344 258.96109375 174.34804688 258.1721875 174.52734375 257.359375 C177.15654753 245.08975736 178.51278216 233.05287611 178.5 220.5 C178.50217529 219.5095015 178.50217529 219.5095015 178.50439453 218.49899292 C178.50128069 205.53781504 176.8435716 193.04419438 174.125 180.375 C173.795 180.375 173.465 180.375 173.125 180.375 Z M-171.875 181.375 C-176.22904933 193.40944163 -176.24937254 206.40662383 -176.1875 219.0625 C-176.18634186 219.80179749 -176.18518372 220.54109497 -176.18399048 221.30279541 C-176.13410175 237.46543589 -174.33718259 252.80483095 -169.875 268.375 C-169.17375 268.08625 -168.4725 267.7975 -167.75 267.5 C-162.52023585 265.45357055 -158.15844269 264.1254095 -152.50244141 264.05615234 C-151.24439697 264.03609131 -149.98635254 264.01603027 -148.69018555 263.99536133 C-147.38218994 263.98400146 -146.07419434 263.9726416 -144.7265625 263.9609375 C-143.51379639 263.94329346 -142.30103027 263.92564941 -141.05151367 263.9074707 C-136.5344757 263.84454988 -132.01721837 263.79826235 -127.5 263.75 C-112.340625 263.564375 -112.340625 263.564375 -96.875 263.375 C-96.875 242.255 -96.875 221.135 -96.875 199.375 C-110.48567391 199.12622298 -110.48567391 199.12622298 -124.09667969 198.89697266 C-155.3648785 198.30788458 -155.3648785 198.30788458 -165.890625 188.49609375 C-167.31588014 186.83906168 -168.60316525 185.15007871 -169.875 183.375 C-170.535 182.715 -171.195 182.055 -171.875 181.375 Z M-162.8125 279.4375 C-164.62138872 284.43854527 -162.84593877 289.10372447 -160.8034668 293.8815918 C-159.50936792 296.5181127 -158.15028327 299.10583866 -156.75 301.6875 C-156.25717529 302.60958252 -155.76435059 303.53166504 -155.2565918 304.48168945 C-144.05183811 325.18181198 -125.87576599 351.76365498 -104.875 363.375 C-102.23862253 363.56230796 -102.23862253 363.56230796 -99.875 362.375 C-96.61687112 358.24280752 -96.45528051 354.45429759 -96.51855469 349.38769531 C-96.51651031 348.59853226 -96.51446594 347.8093692 -96.51235962 346.99629211 C-96.50936107 344.39833099 -96.52779564 341.80101025 -96.546875 339.203125 C-96.54993343 337.39662839 -96.55180891 335.59012942 -96.55255127 333.78363037 C-96.55714796 330.00426157 -96.57155354 326.2251066 -96.59375 322.44580078 C-96.62211291 317.59094834 -96.63297024 312.73626365 -96.6374321 307.88133621 C-96.6415784 304.15484934 -96.65138792 300.42839666 -96.66330719 296.70192719 C-96.66901964 294.91087875 -96.6737751 293.11982701 -96.67757416 291.3287735 C-96.68441281 288.83403162 -96.6980315 286.33942547 -96.71386719 283.84472656 C-96.71554398 282.72578758 -96.71554398 282.72578758 -96.71725464 281.58424377 C-96.44607269 278.19229587 -96.44607269 278.19229587 -97.875 275.375 C-99.65874694 275.27077961 -101.44662206 275.23645934 -103.23339844 275.22973633 C-104.95088287 275.22016655 -104.95088287 275.22016655 -106.70306396 275.21040344 C-107.95089661 275.20929062 -109.19872925 275.2081778 -110.484375 275.20703125 C-111.75847229 275.20370285 -113.03256958 275.20037445 -114.34527588 275.19694519 C-117.04890415 275.1918694 -119.75243202 275.18910595 -122.45605469 275.18969727 C-125.91391245 275.1897986 -129.37156352 275.17618021 -132.82937241 275.15892506 C-136.13103216 275.14509761 -139.43269023 275.14571513 -142.734375 275.14453125 C-143.97411072 275.13734573 -145.21384644 275.13016022 -146.4911499 275.12275696 C-147.64874817 275.12583359 -148.80634644 275.12891022 -149.99902344 275.13208008 C-151.01526794 275.13065506 -152.03151245 275.12923004 -153.07855225 275.12776184 C-157.19996133 275.49214183 -159.9642235 276.40546373 -162.8125 279.4375 Z M99.125 276.375 C99.00865197 278.93985583 98.95700292 281.47815554 98.94799805 284.04418945 C98.94142685 284.84745667 98.93485565 285.65072388 98.92808533 286.47833252 C98.90830355 289.14831627 98.89667872 291.81824364 98.88671875 294.48828125 C98.88264322 295.39807425 98.8785677 296.30786724 98.87436867 297.24522972 C98.85348671 302.06086375 98.83919445 306.87646911 98.82983398 311.69213867 C98.81876734 316.6725333 98.78437069 321.65248139 98.74466228 326.63271809 C98.71854425 330.45626163 98.71014642 334.27969807 98.70655251 338.10332298 C98.70167375 339.9393738 98.69002328 341.77541943 98.67151451 343.61138344 C98.64722572 346.18049307 98.64806902 348.74843821 98.6550293 351.31762695 C98.64221924 352.0777861 98.62940918 352.83794525 98.61621094 353.62113953 C98.65087764 357.12798231 98.87022427 359.03511325 101.001297 361.87809753 C103.0256148 363.60879492 103.0256148 363.60879492 105.57421875 363.3828125 C108.69126823 362.15126768 110.51288053 360.56102663 112.9375 358.25 C113.80632812 357.4353125 114.67515625 356.620625 115.5703125 355.78125 C116.41335938 354.9871875 117.25640625 354.193125 118.125 353.375 C119.51470862 352.15962759 120.90999737 350.95058591 122.3125 349.75 C139.03852258 335.05642239 161.20490111 309.15769235 165.125 286.375 C165.00853519 282.76459087 164.89078596 280.46897995 162.8125 277.5 C159.29321318 275.15380878 155.57991613 275.24888545 151.4543457 275.24560547 C150.31669266 275.24245331 149.17903961 275.23930115 148.00691223 275.23605347 C146.78388901 275.2380777 145.56086578 275.24010193 144.30078125 275.2421875 C143.04363815 275.24123077 141.78649506 275.24027405 140.49125671 275.23928833 C137.83585153 275.23860799 135.18053849 275.23995011 132.52514648 275.24462891 C129.11524194 275.25034337 125.70541581 275.24703309 122.29551411 275.24105644 C119.04726695 275.23658544 115.79902942 275.23970982 112.55078125 275.2421875 C111.32168533 275.24016327 110.09258942 275.23813904 108.82624817 275.23605347 C107.13395332 275.24078171 107.13395332 275.24078171 105.4074707 275.24560547 C104.40915726 275.24640106 103.41084381 275.24719666 102.38227844 275.24801636 C100.15611323 275.12179513 100.15611323 275.12179513 99.125 276.375 Z M-84.875 310.375 C-84.88379936 311.29128929 -84.88379936 311.29128929 -84.89277649 312.22608948 C-84.95686577 318.60195463 -85.04132546 324.97732228 -85.13745117 331.3527832 C-85.17064115 333.72999499 -85.19869141 336.10728446 -85.22143555 338.48461914 C-85.25508986 341.90805058 -85.30741301 345.33077396 -85.36328125 348.75390625 C-85.36967117 349.81146622 -85.3760611 350.86902618 -85.38264465 351.95863342 C-85.53620985 359.72068811 -86.7523477 365.27660441 -91.875 371.375 C-86.25659496 375.60080892 -80.26415155 378.80050565 -73.9375 381.8125 C-73.17961182 382.17859375 -72.42172363 382.5446875 -71.64086914 382.921875 C-69.74810896 383.80506363 -67.81385019 384.59819683 -65.875 385.375 C-64.885 384.88 -64.885 384.88 -63.875 384.375 C-64.07996094 383.80652344 -64.28492188 383.23804688 -64.49609375 382.65234375 C-64.76550781 381.88019531 -65.03492188 381.10804688 -65.3125 380.3125 C-65.57933594 379.55839844 -65.84617188 378.80429687 -66.12109375 378.02734375 C-67.99866927 371.42178012 -67.93649158 364.98988872 -67.8046875 358.19921875 C-67.79378691 356.21681145 -67.78607404 354.23438452 -67.78125 352.25195312 C-67.7734026 349.15639741 -67.75007753 346.06560675 -67.67285156 342.97094727 C-66.86997461 330.75658539 -66.86997461 330.75658539 -71.22363281 319.83447266 C-73.99393136 317.27294619 -76.63029706 315.2875823 -79.875 313.375 C-80.81843262 312.80225342 -81.76186523 312.22950684 -82.73388672 311.6394043 C-83.4404541 311.22215088 -84.14702148 310.80489746 -84.875 310.375 Z M74.28662109 318.56396484 C69.52090757 323.46390505 69.66150674 328.88085547 69.63156128 335.40988159 C69.68630211 338.3392433 69.80754971 341.26059346 69.9375 344.1875 C70.03217212 348.04787592 70.09012232 351.90840365 70.14453125 355.76953125 C70.16379669 356.69396027 70.18306213 357.61838928 70.20291138 358.5708313 C70.29838932 366.23235612 69.15678719 372.97251112 67.125 380.375 C66.77812402 382.03890082 66.43997578 383.70476674 66.125 385.375 C75.61810884 382.03958338 84.30888787 377.16147387 93.125 372.375 C92.09188131 369.69157482 91.09102848 367.32064557 89.5625 364.875 C87.30334515 360.94603504 87.00591214 357.05658653 86.91967773 352.5847168 C86.89973251 351.66413986 86.87978729 350.74356293 86.85923767 349.79508972 C86.84252518 348.8147023 86.82581268 347.83431488 86.80859375 346.82421875 C86.78781265 345.81027542 86.76703156 344.79633209 86.74562073 343.75166321 C86.68038886 340.52200915 86.62136298 337.29227579 86.5625 334.0625 C86.51928971 331.86913252 86.47567462 329.67577297 86.43164062 327.48242188 C86.32473456 322.11336438 86.22291979 316.7442285 86.125 311.375 C82.24294548 311.375 77.13243094 316.13055373 74.28662109 318.56396484 Z M-56.875 333.375 C-56.92517623 337.42769518 -56.96107843 341.48026519 -56.98486328 345.53320312 C-56.99479919 346.90628212 -57.00835261 348.27934067 -57.02587891 349.65234375 C-57.20053736 363.70721235 -57.04142956 377.6276316 -46.875 388.375 C-37.25872182 397.15508007 -21.94710861 397.50550358 -9.4140625 397.578125 C-8.6246225 397.58382507 -7.8351825 397.58952515 -7.02182007 397.59539795 C-5.35619418 397.60478961 -3.6905502 397.61135852 -2.02490234 397.61523438 C0.45901272 397.62484147 2.94206309 397.65587916 5.42578125 397.6875 C21.68517784 397.79492405 38.39363902 397.48489149 50.81640625 385.9296875 C59.99139713 375.77665191 59.41630382 359.9992902 59.25 347.1875 C59.2399393 345.84050153 59.23081897 344.49349569 59.22265625 343.14648438 C59.19930604 339.88912979 59.1665577 336.63216451 59.125 333.375 C56.97300881 334.44843641 54.82603352 335.52879526 52.6875 336.62890625 C51.841875 337.06074219 50.99625 337.49257813 50.125 337.9375 C49.279375 338.37191406 48.43375 338.80632812 47.5625 339.25390625 C42.89446833 341.40090159 38.58827831 341.53291016 33.50170898 341.55200195 C32.73850845 341.55857315 31.97530792 341.56514435 31.1889801 341.57191467 C28.6663502 341.5916017 26.14377985 341.60330297 23.62109375 341.61328125 C22.75588671 341.61735678 21.89067966 341.6214323 20.99925423 341.62563133 C16.41543951 341.64647729 11.83165456 341.66078269 7.24780273 341.67016602 C2.53609073 341.68119857 -2.17514488 341.715566 -6.88668919 341.75533772 C-10.52864905 341.78161455 -14.17049757 341.78986785 -17.81254387 341.79344749 C-19.54791399 341.79828867 -21.28327998 341.80983135 -23.01855659 341.82848549 C-35.93122292 341.95861522 -45.7161425 340.31828911 -56.875 333.375 Z " fill="#FFFFFF" transform="translate(248.875,30.625)"/>
<path d="M0 0 C1.09197441 -0.01029488 1.09197441 -0.01029488 2.20600891 -0.02079773 C4.58684389 -0.03893874 6.96701186 -0.03524676 9.34790039 -0.02954102 C11.01884675 -0.0341089 12.68979123 -0.03941627 14.36073303 -0.04542542 C17.85319681 -0.05433156 21.34543162 -0.05196198 24.83789062 -0.04199219 C29.29418035 -0.03050507 33.74967733 -0.0507224 38.205863 -0.07990932 C41.65390469 -0.09833184 45.10175851 -0.09796689 48.54983711 -0.0922718 C50.19194208 -0.09211933 51.83406039 -0.09810193 53.47611809 -0.11056328 C64.79180719 -0.18435133 74.1471416 0.57662814 82.76708984 8.68798828 C89.13398846 16.01612491 88.88220571 24.92255157 88.77954102 34.11499023 C88.75809539 36.39992386 88.77941369 38.68171466 88.80493164 40.96655273 C88.82336201 50.01346052 88.21866574 57.40028535 82.43383789 64.70874023 C81.81895508 65.22694336 81.20407227 65.74514648 80.57055664 66.27905273 C79.96856445 66.81272461 79.36657227 67.34639648 78.74633789 67.89624023 C69.88415869 73.26641476 60.5576338 72.86241651 50.57836914 72.83764648 C48.95848372 72.84221681 47.33860022 72.84752489 45.71871948 72.85353088 C42.33477875 72.86242943 38.95107442 72.86007679 35.56713867 72.85009766 C31.25791554 72.83862021 26.94951342 72.85881686 22.64039803 72.88801479 C19.29778977 72.9064753 15.95537463 72.90606474 12.61272812 72.90037727 C11.02530644 72.90022522 9.4378707 72.90617264 7.8504982 72.91866875 C-2.97043108 72.99186008 -13.27854104 72.69478802 -21.74194336 65.09155273 C-26.99534882 59.6674116 -28.20506104 53.4304632 -28.17553711 46.12670898 C-28.18077896 45.35652939 -28.18602081 44.58634979 -28.19142151 43.79283142 C-28.19780855 42.17342324 -28.19654798 40.55396846 -28.18798828 38.93457031 C-28.17947704 36.47628024 -28.20828441 34.02031715 -28.23999023 31.56225586 C-28.24160271 29.97957426 -28.24102382 28.39688859 -28.23803711 26.81420898 C-28.24927109 26.09000259 -28.26050507 25.3657962 -28.27207947 24.61964417 C-28.18562711 18.19121729 -26.02196349 13.11037915 -21.88256836 8.19702148 C-21.25866211 7.6672168 -20.63475586 7.13741211 -19.99194336 6.59155273 C-19.37834961 6.04885742 -18.76475586 5.50616211 -18.13256836 4.94702148 C-12.31083098 1.18952759 -6.85175635 0.02836296 0 0 Z M-13.55444336 16.90405273 C-17.14724192 21.44232459 -15.96624562 28.23217875 -15.98217773 33.69091797 C-15.99185841 35.698933 -16.02305627 37.70680656 -16.05444336 39.71459961 C-16.05959961 40.99012695 -16.06475586 42.2656543 -16.07006836 43.57983398 C-16.07941406 44.74426025 -16.08875977 45.90868652 -16.09838867 47.10839844 C-15.61463999 51.5810857 -14.3010055 54.841749 -11.09805298 58.05136108 C-7.87476281 59.90191917 -4.93097908 59.83148846 -1.31469727 59.80810547 C-0.57272598 59.81496872 0.1692453 59.82183197 0.93370056 59.8289032 C3.38316054 59.84718381 5.83198066 59.84333149 8.28149414 59.83764648 C9.98776457 59.84220831 11.69403316 59.84751388 13.40029907 59.85353088 C16.97633324 59.86246491 20.55214414 59.86003633 24.12817383 59.85009766 C28.70369307 59.83861848 33.27843935 59.85880142 37.85385704 59.88801479 C41.37813184 59.90639221 44.90222204 59.9060811 48.42653275 59.90037727 C50.11298327 59.90022419 51.79944642 59.90625802 53.48585129 59.91866875 C55.84839565 59.93360339 58.20952051 59.92288441 60.57202148 59.90576172 C61.61024803 59.92026367 61.61024803 59.92026367 62.66944885 59.93505859 C67.61865256 59.86022103 70.46478448 58.53292832 74.25805664 55.40405273 C77.10762208 49.3668726 76.5887561 43.00743763 76.57055664 36.46655273 C76.58666992 35.31219727 76.6027832 34.1578418 76.61938477 32.96850586 C76.62299021 26.68421803 76.40470957 21.90685798 73.25805664 16.40405273 C68.86902635 12.15660406 64.26567104 12.27546923 58.3815918 12.24291992 C57.69814194 12.23795502 57.01469208 12.23299011 56.31053162 12.22787476 C54.05605044 12.21330433 51.80163961 12.20646008 49.54711914 12.20092773 C47.97537231 12.19517251 46.40362548 12.18941483 44.83187866 12.18365479 C41.5383878 12.17315968 38.24492124 12.16730712 34.95141602 12.16381836 C30.7392517 12.15833364 26.52741063 12.1343 22.31534767 12.10584641 C19.06905183 12.08718863 15.82283342 12.08201278 12.57648849 12.08048248 C11.02400315 12.07746302 9.47151895 12.06945839 7.91908646 12.0562973 C5.74357996 12.03916881 3.56885782 12.04113301 1.39331055 12.04760742 C-0.46056778 12.04213898 -0.46056778 12.04213898 -2.35189819 12.03656006 C-6.81935829 12.52084826 -10.10131169 14.0462886 -13.55444336 16.90405273 Z " fill="#FFFFFF" transform="translate(219.741943359375,233.595947265625)"/>
<path d="M0 0 C1.49389 -0.00929787 1.49389 -0.00929787 3.01795959 -0.01878357 C5.11832708 -0.02586832 7.21875089 -0.0227313 9.3190918 -0.01000977 C12.52172882 0.00384815 15.72143789 -0.0302269 18.92382812 -0.06835938 C20.97005279 -0.06931074 23.0162811 -0.06745082 25.0625 -0.0625 C26.01374252 -0.07575821 26.96498505 -0.08901642 27.9450531 -0.10267639 C34.45357131 -0.01214745 37.7083842 1.22186398 42.59765625 5.56640625 C45.91296452 10.27200509 46.50229348 14.96770693 45.59765625 20.56640625 C43.06525243 25.53742115 39.60904491 29.06071192 34.59765625 31.56640625 C33.24087372 31.67038482 31.87925793 31.71500671 30.51855469 31.72753906 C29.67717957 31.73714661 28.83580444 31.74675415 27.96893311 31.75665283 C26.60179169 31.76302765 26.60179169 31.76302765 25.20703125 31.76953125 C24.26966125 31.77523132 23.33229126 31.7809314 22.36651611 31.7868042 C20.37928397 31.7962619 18.39203608 31.80279123 16.40478516 31.80664062 C13.37374189 31.81632292 10.34338336 31.84732941 7.3125 31.87890625 C5.38151444 31.88543865 3.45052403 31.89068819 1.51953125 31.89453125 C0.61620056 31.90687805 -0.28713013 31.91922485 -1.21783447 31.9319458 C-7.08808228 31.91131638 -11.52917586 31.18706294 -16.046875 27.06640625 C-19.90001554 22.11789131 -20.91638021 18.83765112 -20.40234375 12.56640625 C-18.7930751 7.63744629 -16.77232113 4.30074347 -12.32873535 1.42805481 C-8.41794061 -0.32119008 -4.21451408 -0.02192822 0 0 Z M-6.40234375 12.56640625 C-7.06234375 13.88640625 -7.72234375 15.20640625 -8.40234375 16.56640625 C-7.28944477 18.18365236 -7.28944477 18.18365236 -5.40234375 19.56640625 C-2.43041613 19.92959934 -2.43041613 19.92959934 0.78515625 19.75390625 C2.41517578 19.71330078 2.41517578 19.71330078 4.078125 19.671875 C4.90957031 19.63707031 5.74101563 19.60226562 6.59765625 19.56640625 C6.59765625 17.25640625 6.59765625 14.94640625 6.59765625 12.56640625 C2.30765625 12.56640625 -1.98234375 12.56640625 -6.40234375 12.56640625 Z M18.59765625 12.56640625 C18.59765625 14.87640625 18.59765625 17.18640625 18.59765625 19.56640625 C20.53446786 19.64748208 22.47224965 19.705631 24.41015625 19.75390625 C25.48910156 19.78871094 26.56804687 19.82351563 27.6796875 19.859375 C30.61714469 19.83177577 30.61714469 19.83177577 32.484375 18.0546875 C32.85175781 17.56355469 33.21914062 17.07242187 33.59765625 16.56640625 C32.93765625 15.24640625 32.27765625 13.92640625 31.59765625 12.56640625 C27.30765625 12.56640625 23.01765625 12.56640625 18.59765625 12.56640625 Z " fill="#FFFFFF" transform="translate(101.40234375,244.43359375)"/>
<path d="M0 0 C0.99451172 -0.00336868 1.98902344 -0.00673737 3.01367188 -0.01020813 C5.10812573 -0.00991025 7.20262435 0.00524746 9.296875 0.03442383 C12.49094549 0.07410626 15.68086075 0.05511158 18.875 0.02929688 C20.91668267 0.03685666 22.95835618 0.0478108 25 0.0625 C26.4221582 0.05202385 26.4221582 0.05202385 27.87304688 0.04133606 C34.35534225 0.1784319 37.62555019 1.4407823 42.5 5.76171875 C45.81530827 10.46731759 46.40463723 15.16301943 45.5 20.76171875 C42.96759618 25.73273365 39.51138866 29.25602442 34.5 31.76171875 C33.14321747 31.86569732 31.78160168 31.91031921 30.42089844 31.92285156 C29.57952332 31.93245911 28.73814819 31.94206665 27.87127686 31.95196533 C26.50413544 31.95834015 26.50413544 31.95834015 25.109375 31.96484375 C24.172005 31.97054382 23.23463501 31.9762439 22.26885986 31.9821167 C20.28162772 31.9915744 18.29437983 31.99810373 16.30712891 32.00195312 C13.27608564 32.01163542 10.24572711 32.04264191 7.21484375 32.07421875 C5.28385819 32.08075115 3.35286778 32.08600069 1.421875 32.08984375 C0.51854431 32.10219055 -0.38478638 32.11453735 -1.31549072 32.1272583 C-8.06394503 32.10354265 -12.25257225 30.85931798 -17.3125 26.13671875 C-20.2151141 22.35110877 -20.76243585 18.45275952 -20.5 13.76171875 C-17.56354386 2.93353674 -10.42619772 -0.16805909 0 0 Z M-6.5 12.76171875 C-7.16 14.08171875 -7.82 15.40171875 -8.5 16.76171875 C-7.38710102 18.37896486 -7.38710102 18.37896486 -5.5 19.76171875 C-2.52807238 20.12491184 -2.52807238 20.12491184 0.6875 19.94921875 C2.31751953 19.90861328 2.31751953 19.90861328 3.98046875 19.8671875 C4.81191406 19.83238281 5.64335937 19.79757812 6.5 19.76171875 C6.5 17.45171875 6.5 15.14171875 6.5 12.76171875 C2.21 12.76171875 -2.08 12.76171875 -6.5 12.76171875 Z M18.5 12.76171875 C18.5 14.74171875 18.5 16.72171875 18.5 18.76171875 C20.23219928 20.49391803 22.52026808 19.97463636 24.875 20.01171875 C26.34066406 20.05039062 26.34066406 20.05039062 27.8359375 20.08984375 C30.54962921 19.99633679 30.54962921 19.99633679 32.3515625 18.24609375 C32.73054688 17.75625 33.10953125 17.26640625 33.5 16.76171875 C32.84 15.44171875 32.18 14.12171875 31.5 12.76171875 C27.21 12.76171875 22.92 12.76171875 18.5 12.76171875 Z " fill="#FFFFFF" transform="translate(374.5,244.23828125)"/>
<path d="M0 0 C3.20802233 -0.11698258 6.41549025 -0.18750607 9.625 -0.25 C10.98044922 -0.30027344 10.98044922 -0.30027344 12.36328125 -0.3515625 C18.10919011 -0.43544438 21.48710594 0.06549901 26 4 C29.33886314 8.78570383 29.7410699 13.34553512 29 19 C27.31673935 23.69541128 25.19415187 26.30375951 21 29 C16.78332235 30.15618581 12.5908232 30.15009146 8.25 30.125 C7.56550781 30.12886719 6.88101563 30.13273437 6.17578125 30.13671875 C1.12672061 30.12672061 1.12672061 30.12672061 0 29 C-0.08775605 26.85441173 -0.10695219 24.70595579 -0.09765625 22.55859375 C-0.09443359 21.25341797 -0.09121094 19.94824219 -0.08789062 18.60351562 C-0.07953401 17.2148431 -0.07106905 15.82617123 -0.0625 14.4375 C-0.05748666 13.04492344 -0.05292347 11.65234519 -0.04882812 10.25976562 C-0.03699434 6.8398013 -0.0205088 3.41992156 0 0 Z M11 8 C11 12.29 11 16.58 11 21 C12.65 21 14.3 21 16 21 C18.4282022 19.00442887 18.4282022 19.00442887 18.3125 15.0625 C18.24063201 12.42254903 18.16841808 11.26946893 16.75 9 C14.75709864 7.66924071 14.75709864 7.66924071 11 8 Z " fill="#FFFFFF" transform="translate(221,256)"/>
<path d="M0 0 C9.24 0 18.48 0 28 0 C28 5.75415174 27.0882506 6.76589278 23.625 11.125 C22.81289063 12.15882813 22.00078125 13.19265625 21.1640625 14.2578125 C20.44992187 15.16273438 19.73578125 16.06765625 19 17 C18.34 17.99 17.68 18.98 17 20 C18.17369141 20.07347656 18.17369141 20.07347656 19.37109375 20.1484375 C20.38300781 20.22320312 21.39492188 20.29796875 22.4375 20.375 C23.44683594 20.44460938 24.45617187 20.51421875 25.49609375 20.5859375 C26.32238281 20.72257812 27.14867187 20.85921875 28 21 C29.36623674 23.73247348 29.128426 25.98198902 29 29 C28 30 28 30 25.31616211 30.11352539 C24.14835205 30.10828857 22.98054199 30.10305176 21.77734375 30.09765625 C20.51728516 30.09443359 19.25722656 30.09121094 17.95898438 30.08789062 C16.61848891 30.07953403 15.27799412 30.07106907 13.9375 30.0625 C12.59310058 30.0574866 11.2486994 30.05292342 9.90429688 30.04882812 C6.60282059 30.03699488 3.30143197 30.02050971 0 30 C-0.59448242 28.17749023 -0.59448242 28.17749023 -1 26 C0.51171875 23.16015625 0.51171875 23.16015625 2.6875 20.0625 C3.74517578 18.53302734 3.74517578 18.53302734 4.82421875 16.97265625 C6.81496036 14.25280999 8.86959809 11.61130528 11 9 C10.28972656 8.93941406 9.57945312 8.87882812 8.84765625 8.81640625 C7.92855469 8.73261719 7.00945312 8.64882813 6.0625 8.5625 C4.68771484 8.44068359 4.68771484 8.44068359 3.28515625 8.31640625 C1 8 1 8 0 7 C0 4.69 0 2.38 0 0 Z " fill="#FFFFFF" transform="translate(252,256)"/>
</svg>
