<svg clip-rule="evenodd" fill-rule="evenodd" height="512" stroke-linejoin="round" stroke-miterlimit="2" viewBox="0 0 24 24" width="512" xmlns="http://www.w3.org/2000/svg"><g id="Icon"><path d="m2.5 22.75h15c.414 0 .75-.336.75-.75s-.336-.75-.75-.75h-15c-.414 0-.75.336-.75.75s.336.75.75.75z"/><path d="m20 18.25c-.199 0-.39-.079-.53-.22-.141-.14-.22-.331-.22-.53 0-.809 0-1.784 0-2.5 0-.464-.184-.909-.513-1.237-.328-.329-.773-.513-1.237-.513-.696 0-1.5 0-1.5 0-.414 0-.75.336-.75.75s.336.75.75.75h1.5c.066 0 .13.026.177.073s.073.111.073.177v2.5c0 .597.237 1.169.659 1.591s.994.659 1.591.659c1.243 0 2.25-1.007 2.25-2.25v-9.672c0-.729-.29-1.428-.805-1.944-.739-.739-1.915-1.914-1.915-1.914-.292-.293-.768-.293-1.06 0-.293.292-.293.768 0 1.06 0 0 1.175 1.176 1.914 1.915.234.234.366.552.366.883v9.672c0 .414-.336.75-.75.75z"/><path d="m16.75 3c0-.464-.184-.909-.513-1.237-.328-.329-.773-.513-1.237-.513-2.26 0-7.74 0-10 0-.464 0-.909.184-1.237.513-.329.328-.513.773-.513 1.237v19c0 .414.336.75.75.75h12c.414 0 .75-.336.75-.75zm-6.22 9.47c-.293-.293-.767-.293-1.06 0 0 0-.831.829-1.495 1.891-.487.781-.868 1.683-.868 2.496 0 1.597 1.296 2.893 2.893 2.893s2.893-1.296 2.893-2.893c0-.813-.381-1.715-.868-2.496-.664-1.062-1.495-1.891-1.495-1.891zm4.22-7.97c0-.414-.336-.75-.75-.75h-8c-.414 0-.75.336-.75.75v4.5c0 .414.336.75.75.75h8c.414 0 .75-.336.75-.75z"/></g></svg>