<svg id="icons" height="512" viewBox="0 0 64 64" width="512" xmlns="http://www.w3.org/2000/svg"><path d="m.99121 9.48047a.99943.99943 0 0 1 -1-1 3.00328 3.00328 0 0 1 3-3 1 1 0 1 1 0 2 1.00067 1.00067 0 0 0 -1 1 .99942.99942 0 0 1 -1 1z"/><path d="m48.99121 9.48047a.99943.99943 0 0 1 -1-1 1.00067 1.00067 0 0 0 -1-1 1 1 0 0 1 0-2 3.00328 3.00328 0 0 1 3 3 .99942.99942 0 0 1 -1 1z"/><path d="m48.99121 15.48047h-48a1 1 0 0 1 0-2h48a1 1 0 0 1 0 2z"/><path d="m49 7.48046h.001a.999.999 0 0 1 .999.999v22.09379a1 1 0 0 1 -1 1h-.001a.999.999 0 0 1 -.999-.999v-22.09378a1 1 0 0 1 1-1z"/><path d="m.99121 57.51367a.99942.99942 0 0 1 -1-1v-48.0332a1 1 0 0 1 2 0v48.0332a.99942.99942 0 0 1 -1 1z"/><path d="m32.67188 51.48047h-31.68067a1 1 0 0 1 0-2h31.68067a1 1 0 0 1 0 2z"/><path d="m1.1709 54.49805a1 1 0 0 1 0-2l32.71484-.002a1 1 0 0 1 0 2z"/><path d="m.99121 57.51367a1 1 0 0 1 0-2l57.86524-.01758a1 1 0 0 1 0 2z"/><path d="m8.49121 11.48047a2.50231 2.50231 0 0 1 -2.5-2.5v-5a2.5 2.5 0 0 1 5 0v5a2.50231 2.50231 0 0 1 -2.5 2.5zm0-8a.501.501 0 0 0 -.5.5v5a.5.5 0 1 0 1 0v-5a.501.501 0 0 0 -.5-.5z"/><path d="m19.49121 11.48047a2.50231 2.50231 0 0 1 -2.5-2.5v-5a2.5 2.5 0 0 1 5 0v5a2.50231 2.50231 0 0 1 -2.5 2.5zm0-8a.501.501 0 0 0 -.5.5v5a.5.5 0 0 0 1 0v-5a.501.501 0 0 0 -.5-.5z"/><path d="m30.49121 11.48047a2.50231 2.50231 0 0 1 -2.5-2.5v-5a2.5 2.5 0 0 1 5 0v5a2.50231 2.50231 0 0 1 -2.5 2.5zm0-8a.501.501 0 0 0 -.5.5v5a.5.5 0 0 0 1 0v-5a.501.501 0 0 0 -.5-.5z"/><path d="m41.49121 11.48047a2.50231 2.50231 0 0 1 -2.5-2.5v-5a2.5 2.5 0 1 1 5 0v5a2.50231 2.50231 0 0 1 -2.5 2.5zm0-8a.501.501 0 0 0 -.5.5v5a.5.5 0 1 0 1 0v-5a.501.501 0 0 0 -.5-.5z"/><path d="m6.99121 7.48047h-4a1 1 0 0 1 0-2h4a1 1 0 0 1 0 2z"/><path d="m17.99121 7.48047h-8a1 1 0 1 1 0-2h8a1 1 0 0 1 0 2z"/><path d="m28.99121 7.48047h-8a1 1 0 0 1 0-2h8a1 1 0 0 1 0 2z"/><path d="m39.99121 7.48047h-8a1 1 0 0 1 0-2h8a1 1 0 0 1 0 2z"/><path d="m46.99121 7.48047h-4a1 1 0 0 1 0-2h4a1 1 0 0 1 0 2z"/><path d="m8.99121 23.48047h-4a.99943.99943 0 0 1 -1-1v-4a.99942.99942 0 0 1 1-1h4a.99942.99942 0 0 1 1 1v4a.99942.99942 0 0 1 -1 1zm-3-2h2v-2h-2z"/><path d="m17.99121 23.48047h-4a.99943.99943 0 0 1 -1-1v-4a.99942.99942 0 0 1 1-1h4a.99942.99942 0 0 1 1 1v4a.99942.99942 0 0 1 -1 1zm-3-2h2v-2h-2z"/><path d="m26.99121 23.48047h-4a.99943.99943 0 0 1 -1-1v-4a.99942.99942 0 0 1 1-1h4a.99942.99942 0 0 1 1 1v4a.99942.99942 0 0 1 -1 1zm-3-2h2v-2h-2z"/><path d="m35.99121 23.48047h-4a.99943.99943 0 0 1 -1-1v-4a.99942.99942 0 0 1 1-1h4a.99942.99942 0 0 1 1 1v4a.99942.99942 0 0 1 -1 1zm-3-2h2v-2h-2z"/><path d="m8.99121 31.48047h-4a.99943.99943 0 0 1 -1-1v-4a.99942.99942 0 0 1 1-1h4a.99942.99942 0 0 1 1 1v4a.99942.99942 0 0 1 -1 1zm-3-2h2v-2h-2z"/><path d="m17.99121 31.48047h-4a.99943.99943 0 0 1 -1-1v-4a.99942.99942 0 0 1 1-1h4a.99942.99942 0 0 1 1 1v4a.99942.99942 0 0 1 -1 1zm-3-2h2v-2h-2z"/><path d="m26.99121 31.48047h-4a.99943.99943 0 0 1 -1-1v-4a.99942.99942 0 0 1 1-1h4a.99942.99942 0 0 1 1 1v4a.99942.99942 0 0 1 -1 1zm-3-2h2v-2h-2z"/><path d="m8.99121 39.48047h-4a.99943.99943 0 0 1 -1-1v-4a.99942.99942 0 0 1 1-1h4a.99942.99942 0 0 1 1 1v4a.99942.99942 0 0 1 -1 1zm-3-2h2v-2h-2z"/><path d="m17.99121 39.48047h-4a.99943.99943 0 0 1 -1-1v-4a.99942.99942 0 0 1 1-1h4a.99942.99942 0 0 1 1 1v4a.99942.99942 0 0 1 -1 1zm-3-2h2v-2h-2z"/><path d="m26.99121 39.48047h-4a.99943.99943 0 0 1 -1-1v-4a.99942.99942 0 0 1 1-1h4a.99942.99942 0 0 1 1 1v4a.99942.99942 0 0 1 -1 1zm-3-2h2v-2h-2z"/><path d="m33.93945 39.48047h-1.93066a.99942.99942 0 0 1 -1-1v-4a.99942.99942 0 0 1 1-1h4a.99942.99942 0 0 1 1 1v1.11523a1 1 0 0 1 -2 0v-.11523h-2v2h.93066a1 1 0 0 1 0 2z"/><path d="m8.99121 47.48047h-4a.99943.99943 0 0 1 -1-1v-4a.99942.99942 0 0 1 1-1h4a.99942.99942 0 0 1 1 1v4a.99942.99942 0 0 1 -1 1zm-3-2h2v-2h-2z"/><path d="m17.99121 47.48047h-4a.99943.99943 0 0 1 -1-1v-4a.99942.99942 0 0 1 1-1h4a.99942.99942 0 0 1 1 1v4a.99942.99942 0 0 1 -1 1zm-3-2h2v-2h-2z"/><path d="m26.99121 47.48047h-4a.99943.99943 0 0 1 -1-1v-4a.99942.99942 0 0 1 1-1h4a.99942.99942 0 0 1 1 1v4a.99942.99942 0 0 1 -1 1zm-3-2h2v-2h-2z"/><path d="m35.99121 31.48047h-4a.99943.99943 0 0 1 -1-1v-4a.99942.99942 0 0 1 1-1h4a.99942.99942 0 0 1 1 1v4a.99942.99942 0 0 1 -1 1zm-3-2h2v-2h-2z"/><path d="m44.99121 31.48047h-4a.99943.99943 0 0 1 -1-1v-4a.99942.99942 0 0 1 1-1h4a.99942.99942 0 0 1 1 1v4a.99942.99942 0 0 1 -1 1zm-3-2h2v-2h-2z"/><path d="m44.99121 23.48047h-4a.99943.99943 0 0 1 -1-1v-4a.99942.99942 0 0 1 1-1h4a.99942.99942 0 0 1 1 1v4a.99942.99942 0 0 1 -1 1zm-3-2h2v-2h-2z"/><path d="m47.5 62.51953a16.50879 16.50879 0 1 1 16.50879-16.50879 16.528 16.528 0 0 1 -16.50879 16.50879zm0-31.01758a14.50879 14.50879 0 1 0 14.50879 14.50879 14.52545 14.52545 0 0 0 -14.50879-14.50874z"/><path d="m56.502 57.56934h-18a.99943.99943 0 0 1 -1-1v-13.09082a1 1 0 0 1 2 0v12.09082h16v-12.09278a1 1 0 0 1 2 0v13.09278a.99942.99942 0 0 1 -1 1z"/><path d="m36.50293 45.56934a1 1 0 0 1 -.47949-1.87793l11-6a.99987.99987 0 0 1 .957 1.75586l-11 6a.99016.99016 0 0 1 -.47751.12207z"/><path d="m36.50293 42.56934a1 1 0 0 1 -.47949-1.87793l11-6a.99987.99987 0 0 1 .957 1.75586l-11 6a.99016.99016 0 0 1 -.47751.12207z"/><path d="m36.502 45.56934a.99943.99943 0 0 1 -1-1v-3a1 1 0 0 1 2 0v3a.99942.99942 0 0 1 -1 1z"/><path d="m58.501 45.56934a.99014.99014 0 0 1 -.47754-.12207l-11-6a.99987.99987 0 1 1 .957-1.75586l11 6a1 1 0 0 1 -.47949 1.87793z"/><path d="m58.501 42.56934a.99014.99014 0 0 1 -.47754-.12207l-11-6a.99987.99987 0 1 1 .957-1.75586l11 6a1 1 0 0 1 -.47949 1.87793z"/><path d="m58.502 45.56934a.99943.99943 0 0 1 -1-1v-3a1 1 0 0 1 2 0v3a.99942.99942 0 0 1 -1 1z"/><path d="m52.5 54.56934h-10a.99943.99943 0 0 1 -1-1v-4a1 1 0 0 1 2 0v3h8v-3a1 1 0 0 1 2 0v4a.99943.99943 0 0 1 -1 1z"/><path d="m52.5 50.56934a.99943.99943 0 0 1 -1-1v-3a1 1 0 0 1 2 0v3a.99943.99943 0 0 1 -1 1z"/><path d="m42.5 50.56934a.99943.99943 0 0 1 -1-1v-3a1 1 0 0 1 2 0v3a.99943.99943 0 0 1 -1 1z"/><path d="m42.5 47.56934a.99943.99943 0 0 1 -1-1 2.0026 2.0026 0 0 1 2-2 1 1 0 0 1 0 2 .99943.99943 0 0 1 -1 1z"/><path d="m52.5 47.56934a.99943.99943 0 0 1 -1-1v-.002a.999.999 0 1 1 0-1.998 2.0026 2.0026 0 0 1 2 2 .99943.99943 0 0 1 -1 1z"/><path d="m52.5 49.56934h-10a1 1 0 0 1 0-2h10a1 1 0 0 1 0 2z"/><path d="m51.5 46.56934h-8a1 1 0 0 1 0-2h8a1 1 0 0 1 0 2z"/><path d="m49.5 46.56934h-4a.99943.99943 0 0 1 -1-1v-3a.99942.99942 0 0 1 1-1h4a.99942.99942 0 0 1 1 1v3a.99943.99943 0 0 1 -1 1zm-3-2h2v-1h-2z"/><path d="m47.5 50.56934a.99943.99943 0 0 1 -1-1v-2a1 1 0 0 1 2 0v2a.99943.99943 0 0 1 -1 1z"/></svg>